<?xml version="1.0" encoding="UTF-8" standalone="no"?>
<!DOCTYPE svg PUBLIC "-//W3C//DTD SVG 1.1//EN"
 "http://www.w3.org/Graphics/SVG/1.1/DTD/svg11.dtd">
<!-- Generated by graphviz version 2.47.0 (20210316.0004)
 -->
<!-- Title: dependencies Pages: 1 -->
<svg width="504pt" height="211pt"
 viewBox="0.00 0.00 504.00 211.00" xmlns="http://www.w3.org/2000/svg" xmlns:xlink="http://www.w3.org/1999/xlink">
<g id="graph0" class="graph" transform="scale(1 1) rotate(0) translate(4 207)">
<title>dependencies</title>
<polygon fill="white" stroke="transparent" points="-4,4 -4,-207 500,-207 500,4 -4,4"/>
<text text-anchor="start" x="227.01" y="-42.4" font-family="Times-12" font-weight="bold" font-size="14.00">Legend</text>
<polygon fill="#ffffb3" stroke="transparent" points="14,-10 14,-30 34,-30 34,-10 14,-10"/>
<text text-anchor="start" x="37.63" y="-15.4" font-family="Times-12" font-size="14.00"> &#160;Declarations</text>
<polygon fill="#8dd3c7" stroke="transparent" points="127,-10 127,-30 147,-30 147,-10 127,-10"/>
<text text-anchor="start" x="150.73" y="-15.4" font-family="Times-12" font-size="14.00"> &#160;Module</text>
<polygon fill="#80b1d3" stroke="transparent" points="213,-10 213,-30 233,-30 233,-10 213,-10"/>
<text text-anchor="start" x="236.78" y="-15.4" font-family="Times-12" font-size="14.00"> &#160;Bootstrap</text>
<polygon fill="#fdb462" stroke="transparent" points="310,-10 310,-30 330,-30 330,-10 310,-10"/>
<text text-anchor="start" x="333.67" y="-15.4" font-family="Times-12" font-size="14.00"> &#160;Providers</text>
<polygon fill="#fb8072" stroke="transparent" points="406,-10 406,-30 426,-30 426,-10 406,-10"/>
<text text-anchor="start" x="429.73" y="-15.4" font-family="Times-12" font-size="14.00"> &#160;Exports</text>
<g id="clust1" class="cluster">
<title>cluster_TaskModule</title>
<polygon fill="none" stroke="black" stroke-dasharray="1,5" points="112,-70 112,-195 384,-195 384,-70 112,-70"/>
</g>
<g id="clust3" class="cluster">
<title>cluster_TaskModule_imports</title>
<polygon fill="none" stroke="black" points="262,-78 262,-130 376,-130 376,-78 262,-78"/>
</g>
<g id="clust6" class="cluster">
<title>cluster_TaskModule_providers</title>
<polygon fill="none" stroke="black" points="120,-78 120,-130 254,-130 254,-78 120,-78"/>
</g>
<!-- PrismaModule -->
<g id="node1" class="node">
<title>PrismaModule</title>
<polygon fill="#8dd3c7" stroke="black" points="368.43,-122 365.43,-126 344.43,-126 341.43,-122 269.57,-122 269.57,-86 368.43,-86 368.43,-122"/>
<text text-anchor="middle" x="319" y="-99.8" font-family="Times,serif" font-size="14.00">PrismaModule</text>
</g>
<!-- TaskModule -->
<g id="node2" class="node">
<title>TaskModule</title>
<polygon fill="#8dd3c7" stroke="black" points="296.26,-187 293.26,-191 272.26,-191 269.26,-187 209.74,-187 209.74,-151 296.26,-151 296.26,-187"/>
<text text-anchor="middle" x="253" y="-164.8" font-family="Times,serif" font-size="14.00">TaskModule</text>
</g>
<!-- PrismaModule&#45;&gt;TaskModule -->
<g id="edge1" class="edge">
<title>PrismaModule&#45;&gt;TaskModule</title>
<path fill="none" stroke="black" d="M283.08,-122.11C283.08,-122.11 283.08,-140.99 283.08,-140.99"/>
<polygon fill="black" stroke="black" points="279.58,-140.99 283.08,-150.99 286.58,-140.99 279.58,-140.99"/>
</g>
<!-- TaskService -->
<g id="node3" class="node">
<title>TaskService</title>
<ellipse fill="#fdb462" stroke="black" cx="187" cy="-104" rx="58.53" ry="18"/>
<text text-anchor="middle" x="187" y="-99.8" font-family="Times,serif" font-size="14.00">TaskService</text>
</g>
<!-- TaskService&#45;&gt;TaskModule -->
<g id="edge2" class="edge">
<title>TaskService&#45;&gt;TaskModule</title>
<path fill="none" stroke="black" d="M227.69,-117.15C227.69,-117.15 227.69,-140.69 227.69,-140.69"/>
<polygon fill="black" stroke="black" points="224.19,-140.69 227.69,-150.69 231.19,-140.69 224.19,-140.69"/>
</g>
</g>
</svg>
