<?xml version="1.0" encoding="UTF-8" standalone="no"?>
<!DOCTYPE svg PUBLIC "-//W3C//DTD SVG 1.1//EN"
 "http://www.w3.org/Graphics/SVG/1.1/DTD/svg11.dtd">
<!-- Generated by graphviz version 2.47.0 (20210316.0004)
 -->
<!-- Title: dependencies Pages: 1 -->
<svg width="1059pt" height="417pt"
 viewBox="0.00 0.00 1059.00 417.00" xmlns="http://www.w3.org/2000/svg" xmlns:xlink="http://www.w3.org/1999/xlink">
<g id="graph0" class="graph" transform="scale(1 1) rotate(0) translate(4 413)">
<title>dependencies</title>
<polygon fill="white" stroke="transparent" points="-4,4 -4,-413 1055,-413 1055,4 -4,4"/>
<text text-anchor="start" x="504.51" y="-42.4" font-family="Times-12" font-weight="bold" font-size="14.00">Legend</text>
<polygon fill="#ffffb3" stroke="transparent" points="291.5,-10 291.5,-30 311.5,-30 311.5,-10 291.5,-10"/>
<text text-anchor="start" x="315.13" y="-15.4" font-family="Times-12" font-size="14.00"> &#160;Declarations</text>
<polygon fill="#8dd3c7" stroke="transparent" points="404.5,-10 404.5,-30 424.5,-30 424.5,-10 404.5,-10"/>
<text text-anchor="start" x="428.23" y="-15.4" font-family="Times-12" font-size="14.00"> &#160;Module</text>
<polygon fill="#80b1d3" stroke="transparent" points="490.5,-10 490.5,-30 510.5,-30 510.5,-10 490.5,-10"/>
<text text-anchor="start" x="514.28" y="-15.4" font-family="Times-12" font-size="14.00"> &#160;Bootstrap</text>
<polygon fill="#fdb462" stroke="transparent" points="587.5,-10 587.5,-30 607.5,-30 607.5,-10 587.5,-10"/>
<text text-anchor="start" x="611.17" y="-15.4" font-family="Times-12" font-size="14.00"> &#160;Providers</text>
<polygon fill="#fb8072" stroke="transparent" points="683.5,-10 683.5,-30 703.5,-30 703.5,-10 683.5,-10"/>
<text text-anchor="start" x="707.23" y="-15.4" font-family="Times-12" font-size="14.00"> &#160;Exports</text>
<g id="clust1" class="cluster">
<title>cluster_AppModule</title>
<polygon fill="none" stroke="black" stroke-dasharray="1,5" points="8,-70 8,-401 421,-401 421,-70 8,-70"/>
</g>
<g id="clust3" class="cluster">
<title>cluster_AppModule_imports</title>
<polygon fill="none" stroke="black" points="88,-146 88,-263 413,-263 413,-146 88,-146"/>
</g>
<g id="clust4" class="cluster">
<title>cluster_AppModule_exports</title>
<polygon fill="none" stroke="black" points="38,-341 38,-393 154,-393 154,-341 38,-341"/>
</g>
<g id="clust6" class="cluster">
<title>cluster_AppModule_providers</title>
<polygon fill="none" stroke="black" points="16,-78 16,-130 297,-130 297,-78 16,-78"/>
</g>
<g id="clust7" class="cluster">
<title>cluster_AuthModule</title>
<polygon fill="none" stroke="black" stroke-dasharray="1,5" points="429,-138 429,-206 711,-206 711,-138 429,-138"/>
</g>
<g id="clust12" class="cluster">
<title>cluster_AuthModule_providers</title>
<polygon fill="none" stroke="black" points="437,-146 437,-198 703,-198 703,-146 437,-146"/>
</g>
<g id="clust19" class="cluster">
<title>cluster_SchoolModule</title>
<polygon fill="none" stroke="black" stroke-dasharray="1,5" points="719,-138 719,-206 885,-206 885,-138 719,-138"/>
</g>
<g id="clust24" class="cluster">
<title>cluster_SchoolModule_providers</title>
<polygon fill="none" stroke="black" points="727,-146 727,-198 877,-198 877,-146 727,-146"/>
</g>
<g id="clust25" class="cluster">
<title>cluster_TaskModule</title>
<polygon fill="none" stroke="black" stroke-dasharray="1,5" points="893,-138 893,-206 1043,-206 1043,-138 893,-138"/>
</g>
<g id="clust30" class="cluster">
<title>cluster_TaskModule_providers</title>
<polygon fill="none" stroke="black" points="901,-146 901,-198 1035,-198 1035,-146 901,-146"/>
</g>
<!-- AuthModule -->
<g id="node1" class="node">
<title>AuthModule</title>
<polygon fill="#8dd3c7" stroke="black" points="183.55,-255 180.55,-259 159.55,-259 156.55,-255 96.45,-255 96.45,-219 183.55,-219 183.55,-255"/>
<text text-anchor="middle" x="140" y="-232.8" font-family="Times,serif" font-size="14.00">AuthModule</text>
</g>
<!-- AppModule -->
<g id="node5" class="node">
<title>AppModule</title>
<polygon fill="#8dd3c7" stroke="black" points="159.66,-320 156.66,-324 135.66,-324 132.66,-320 76.34,-320 76.34,-284 159.66,-284 159.66,-320"/>
<text text-anchor="middle" x="118" y="-297.8" font-family="Times,serif" font-size="14.00">AppModule</text>
</g>
<!-- AuthModule&#45;&gt;AppModule -->
<g id="edge1" class="edge">
<title>AuthModule&#45;&gt;AppModule</title>
<path fill="none" stroke="black" d="M128.03,-255.11C128.03,-255.11 128.03,-273.99 128.03,-273.99"/>
<polygon fill="black" stroke="black" points="124.53,-273.99 128.03,-283.99 131.53,-273.99 124.53,-273.99"/>
</g>
<!-- PrismaModule -->
<g id="node2" class="node">
<title>PrismaModule</title>
<polygon fill="#8dd3c7" stroke="black" points="232.43,-190 229.43,-194 208.43,-194 205.43,-190 133.57,-190 133.57,-154 232.43,-154 232.43,-190"/>
<text text-anchor="middle" x="183" y="-167.8" font-family="Times,serif" font-size="14.00">PrismaModule</text>
</g>
<!-- PrismaModule&#45;&gt;AuthModule -->
<g id="edge8" class="edge">
<title>PrismaModule&#45;&gt;AuthModule</title>
<path fill="none" stroke="black" d="M146.28,-190.11C146.28,-190.11 146.28,-208.99 146.28,-208.99"/>
<polygon fill="black" stroke="black" points="142.78,-208.99 146.28,-218.99 149.78,-208.99 142.78,-208.99"/>
</g>
<!-- SchoolModule -->
<g id="node3" class="node">
<title>SchoolModule</title>
<polygon fill="#8dd3c7" stroke="black" points="300.44,-255 297.44,-259 276.44,-259 273.44,-255 201.56,-255 201.56,-219 300.44,-219 300.44,-255"/>
<text text-anchor="middle" x="251" y="-232.8" font-family="Times,serif" font-size="14.00">SchoolModule</text>
</g>
<!-- PrismaModule&#45;&gt;SchoolModule -->
<g id="edge13" class="edge">
<title>PrismaModule&#45;&gt;SchoolModule</title>
<path fill="none" stroke="black" d="M217,-190.11C217,-190.11 217,-208.99 217,-208.99"/>
<polygon fill="black" stroke="black" points="213.5,-208.99 217,-218.99 220.5,-208.99 213.5,-208.99"/>
</g>
<!-- TaskModule -->
<g id="node4" class="node">
<title>TaskModule</title>
<polygon fill="#8dd3c7" stroke="black" points="405.26,-255 402.26,-259 381.26,-259 378.26,-255 318.74,-255 318.74,-219 405.26,-219 405.26,-255"/>
<text text-anchor="middle" x="362" y="-232.8" font-family="Times,serif" font-size="14.00">TaskModule</text>
</g>
<!-- PrismaModule&#45;&gt;TaskModule -->
<g id="edge15" class="edge">
<title>PrismaModule&#45;&gt;TaskModule</title>
<path fill="none" stroke="black" d="M232.39,-172C285.37,-172 362,-172 362,-172 362,-172 362,-208.89 362,-208.89"/>
<polygon fill="black" stroke="black" points="358.5,-208.89 362,-218.89 365.5,-208.89 358.5,-208.89"/>
</g>
<!-- PrismaModule&#45;&gt;AppModule -->
<g id="edge2" class="edge">
<title>PrismaModule&#45;&gt;AppModule</title>
<path fill="none" stroke="black" d="M189.78,-190.11C189.78,-223.87 189.78,-293 189.78,-293 189.78,-293 169.75,-293 169.75,-293"/>
<polygon fill="black" stroke="black" points="169.75,-289.5 159.75,-293 169.75,-296.5 169.75,-289.5"/>
</g>
<!-- PrismaService  -->
<g id="node6" class="node">
<title>PrismaService </title>
<polygon fill="#fb8072" stroke="black" points="146.36,-385 45.64,-385 45.64,-349 146.36,-349 146.36,-385"/>
<text text-anchor="middle" x="96" y="-362.8" font-family="Times,serif" font-size="14.00">PrismaService </text>
</g>
<!-- PrismaModule&#45;&gt;PrismaService  -->
<g id="edge11" class="edge">
<title>PrismaModule&#45;&gt;PrismaService </title>
<path fill="none" stroke="black" stroke-dasharray="5,2" d="M195.78,-190.35C195.78,-238.89 195.78,-367 195.78,-367 195.78,-367 156.18,-367 156.18,-367"/>
<polygon fill="black" stroke="black" points="156.18,-363.5 146.18,-367 156.18,-370.5 156.18,-363.5"/>
</g>
<!-- SchoolModule&#45;&gt;AppModule -->
<g id="edge3" class="edge">
<title>SchoolModule&#45;&gt;AppModule</title>
<path fill="none" stroke="black" d="M251,-255.11C251,-274.34 251,-302 251,-302 251,-302 169.72,-302 169.72,-302"/>
<polygon fill="black" stroke="black" points="169.72,-298.5 159.72,-302 169.72,-305.5 169.72,-298.5"/>
</g>
<!-- TaskModule&#45;&gt;AppModule -->
<g id="edge4" class="edge">
<title>TaskModule&#45;&gt;AppModule</title>
<path fill="none" stroke="black" d="M362,-255.29C362,-277.21 362,-311 362,-311 362,-311 169.67,-311 169.67,-311"/>
<polygon fill="black" stroke="black" points="169.67,-307.5 159.67,-311 169.67,-314.5 169.67,-307.5"/>
</g>
<!-- AppModule&#45;&gt;PrismaService  -->
<g id="edge5" class="edge">
<title>AppModule&#45;&gt;PrismaService </title>
<path fill="none" stroke="black" stroke-dasharray="5,2" d="M111.18,-320.11C111.18,-320.11 111.18,-338.99 111.18,-338.99"/>
<polygon fill="black" stroke="black" points="107.68,-338.99 111.18,-348.99 114.68,-338.99 107.68,-338.99"/>
</g>
<!-- AppService -->
<g id="node7" class="node">
<title>AppService</title>
<ellipse fill="#fdb462" stroke="black" cx="81" cy="-104" rx="56.74" ry="18"/>
<text text-anchor="middle" x="81" y="-99.8" font-family="Times,serif" font-size="14.00">AppService</text>
</g>
<!-- AppService&#45;&gt;AppModule -->
<g id="edge6" class="edge">
<title>AppService&#45;&gt;AppModule</title>
<path fill="none" stroke="black" d="M82.86,-122.27C82.86,-122.27 82.86,-273.77 82.86,-273.77"/>
<polygon fill="black" stroke="black" points="79.36,-273.77 82.86,-283.77 86.36,-273.77 79.36,-273.77"/>
</g>
<!-- PrismaService -->
<g id="node8" class="node">
<title>PrismaService</title>
<ellipse fill="#fdb462" stroke="black" cx="222" cy="-104" rx="66.63" ry="18"/>
<text text-anchor="middle" x="222" y="-99.8" font-family="Times,serif" font-size="14.00">PrismaService</text>
</g>
<!-- PrismaService&#45;&gt;PrismaModule -->
<g id="edge12" class="edge">
<title>PrismaService&#45;&gt;PrismaModule</title>
<path fill="none" stroke="black" d="M206.54,-121.51C206.54,-121.51 206.54,-143.84 206.54,-143.84"/>
<polygon fill="black" stroke="black" points="203.04,-143.84 206.54,-153.84 210.04,-143.84 203.04,-143.84"/>
</g>
<!-- PrismaService&#45;&gt;AppModule -->
<g id="edge7" class="edge">
<title>PrismaService&#45;&gt;AppModule</title>
<path fill="none" stroke="black" d="M180.86,-118.22C180.86,-127.54 180.86,-138 180.86,-138 180.86,-138 89.54,-138 89.54,-138 89.54,-138 89.54,-273.82 89.54,-273.82"/>
<polygon fill="black" stroke="black" points="86.04,-273.82 89.54,-283.82 93.04,-273.82 86.04,-273.82"/>
</g>
<!-- AuthService -->
<g id="node9" class="node">
<title>AuthService</title>
<ellipse fill="#fdb462" stroke="black" cx="636" cy="-172" rx="59.11" ry="18"/>
<text text-anchor="middle" x="636" y="-167.8" font-family="Times,serif" font-size="14.00">AuthService</text>
</g>
<!-- AuthService&#45;&gt;AuthModule -->
<g id="edge9" class="edge">
<title>AuthService&#45;&gt;AuthModule</title>
<path fill="none" stroke="black" d="M636,-190.04C636,-197.75 636,-205 636,-205 636,-205 171.28,-205 171.28,-205 171.28,-205 171.28,-208.76 171.28,-208.76"/>
<polygon fill="black" stroke="black" points="167.78,-208.76 171.28,-218.76 174.78,-208.76 167.78,-208.76"/>
</g>
<!-- JwtStrategy -->
<g id="node10" class="node">
<title>JwtStrategy</title>
<ellipse fill="#fdb462" stroke="black" cx="502" cy="-172" rx="56.76" ry="18"/>
<text text-anchor="middle" x="502" y="-167.8" font-family="Times,serif" font-size="14.00">JwtStrategy</text>
</g>
<!-- JwtStrategy&#45;&gt;AuthModule -->
<g id="edge10" class="edge">
<title>JwtStrategy&#45;&gt;AuthModule</title>
<path fill="none" stroke="black" d="M502,-190.06C502,-194.49 502,-198 502,-198 502,-198 158.78,-198 158.78,-198 158.78,-198 158.78,-208.87 158.78,-208.87"/>
<polygon fill="black" stroke="black" points="155.28,-208.87 158.78,-218.87 162.28,-208.87 155.28,-208.87"/>
</g>
<!-- SchoolService -->
<g id="node11" class="node">
<title>SchoolService</title>
<ellipse fill="#fdb462" stroke="black" cx="802" cy="-172" rx="66.63" ry="18"/>
<text text-anchor="middle" x="802" y="-167.8" font-family="Times,serif" font-size="14.00">SchoolService</text>
</g>
<!-- SchoolService&#45;&gt;SchoolModule -->
<g id="edge14" class="edge">
<title>SchoolService&#45;&gt;SchoolModule</title>
<path fill="none" stroke="black" d="M802,-190.13C802,-200.71 802,-212 802,-212 802,-212 294.52,-212 294.52,-212 294.52,-212 294.52,-212.68 294.52,-212.68"/>
<polygon fill="black" stroke="black" points="291.02,-208.83 294.52,-218.83 298.02,-208.83 291.02,-208.83"/>
</g>
<!-- TaskService -->
<g id="node12" class="node">
<title>TaskService</title>
<ellipse fill="#fdb462" stroke="black" cx="968" cy="-172" rx="58.53" ry="18"/>
<text text-anchor="middle" x="968" y="-167.8" font-family="Times,serif" font-size="14.00">TaskService</text>
</g>
<!-- TaskService&#45;&gt;TaskModule -->
<g id="edge16" class="edge">
<title>TaskService&#45;&gt;TaskModule</title>
<path fill="none" stroke="black" d="M968,-190.11C968,-209.34 968,-237 968,-237 968,-237 415.58,-237 415.58,-237"/>
<polygon fill="black" stroke="black" points="415.58,-233.5 405.58,-237 415.58,-240.5 415.58,-233.5"/>
</g>
</g>
</svg>
